<svg version="1.2" xmlns="http://www.w3.org/2000/svg" viewBox="0 0 24 24" width="24" height="24">
	<title>editor</title>
	<style>
		.s0 { fill: #ffffff } 
	</style>
	<path id="Shape 1" fill-rule="evenodd" class="s0" d="m17.7 4v1.4h-0.1c-0.3 0-0.7 0.3-0.7 0.6 0 0.4 0.4 0.7 0.7 0.7h0.1v6.7c-0.4 0-0.7 0.3-0.7 0.7 0 0.3 0.3 0.6 0.7 0.6h0.1c0 1.8-2.1 3.2-4.8 3.5l-0.1 3.1h4v1.8h-9.7v-1.8h3.9v-3.1c-2.7-0.2-4.9-1.7-4.9-3.4h0.3c0.4 0 0.7-0.3 0.7-0.7 0-0.4-0.3-0.7-0.7-0.7h-0.3v-6.7h0.3c0.4 0 0.7-0.3 0.7-0.7 0-0.3-0.3-0.6-0.7-0.6h-0.3v-1.4zm0.1 10.4q0 0.2 0 0.4h1.3c1.1-0.1 2.1-1 2.1-2.1v-5.3c0-1.1-1-2-2.1-2h-1.4v1.3h1.4c0.4 0 0.7 0.3 0.7 0.7v5.3c0 0.4-0.3 0.7-0.7 0.7h-1.4zm-11.5 0.4h-1.1c-1.1 0-2.1-0.9-2.1-2v-5.4c0-1.1 1-2 2.1-2h1.2v1.4h-1.2c-0.4 0-0.7 0.3-0.7 0.6v5.4c0 0.4 0.3 0.7 0.7 0.7h1.2v1q-0.1 0.1-0.1 0.3z"/>
</svg>